<svg width="47" height="45" viewBox="0 0 47 45" fill="none" xmlns="http://www.w3.org/2000/svg">
<path d="M23.2119 0.563477C35.8338 0.563518 46.0662 10.3673 46.0664 22.4609C46.0664 34.5547 35.8339 44.3593 23.2119 44.3594C10.5899 44.3594 0.357422 34.5547 0.357422 22.4609C0.357576 10.3673 10.59 0.563477 23.2119 0.563477ZM23.21 10.7812C19.9013 10.7813 19.4855 10.7949 18.1855 10.8516C16.8881 10.9085 16.0025 11.1057 15.2275 11.3945C14.4259 11.6928 13.7458 12.0918 13.0684 12.7412C12.3904 13.3903 11.9735 14.0417 11.6611 14.8096C11.359 15.5523 11.1532 16.4011 11.0947 17.6436C11.0366 18.8893 11.0215 19.2882 11.0215 22.46C11.0215 25.6317 11.0368 26.0287 11.0957 27.2744C11.1554 28.5175 11.361 29.3659 11.6621 30.1084C11.9737 30.8765 12.3896 31.5286 13.0674 32.1777C13.7445 32.8273 14.4246 33.2271 15.2256 33.5254C16.0011 33.8142 16.8873 34.0114 18.1846 34.0684C19.4847 34.125 19.9001 34.1387 23.21 34.1387C26.5206 34.1387 26.9352 34.125 28.2354 34.0684C29.5329 34.0114 30.4198 33.8142 31.1953 33.5254C31.9966 33.2271 32.6754 32.8272 33.3525 32.1777C34.0305 31.5286 34.4474 30.8772 34.7598 30.1094C35.0594 29.3665 35.2652 28.5172 35.3262 27.2744C35.3846 26.0287 35.3994 25.6316 35.3994 22.46C35.3994 19.2884 35.3846 18.89 35.3262 17.6445C35.2652 16.4012 35.0594 15.5522 34.7598 14.8096C34.4474 14.0415 34.0305 13.3903 33.3525 12.7412C32.6746 12.0916 31.9967 11.6926 31.1943 11.3945C30.4173 11.1057 29.531 10.9085 28.2334 10.8516C26.9335 10.7949 26.5195 10.7813 23.21 10.7812Z" fill="#F05537"/>
<path d="M22.1201 12.8818C22.4446 12.8813 22.8071 12.8818 23.2139 12.8818C26.4678 12.8818 26.8537 12.8933 28.1387 12.9492C29.3271 13.0013 29.9727 13.1917 30.4023 13.3516C30.9709 13.5632 31.3765 13.816 31.8027 14.2246C32.2293 14.6333 32.4934 15.0225 32.7148 15.5674C32.8817 15.9785 33.0807 16.5968 33.1348 17.7354C33.1932 18.9665 33.2061 19.3366 33.2061 22.4531C33.2061 25.5697 33.1932 25.94 33.1348 27.1709C33.0804 28.3094 32.8817 28.9277 32.7148 29.3389C32.4939 29.8839 32.2293 30.2722 31.8027 30.6807C31.3762 31.0894 30.9713 31.343 30.4023 31.5547C29.9732 31.7153 29.3271 31.905 28.1387 31.957C26.854 32.013 26.4678 32.0244 23.2139 32.0244C19.9591 32.0244 19.573 32.013 18.2881 31.957C17.0997 31.9045 16.4543 31.7136 16.0244 31.5537C15.4558 31.3421 15.0495 31.0893 14.623 30.6807C14.1964 30.2719 13.9324 29.8832 13.7109 29.3379C13.5441 28.9267 13.3451 28.3084 13.291 27.1699C13.2326 25.939 13.2207 25.5687 13.2207 22.4502C13.2207 19.3317 13.2326 18.9635 13.291 17.7324C13.3454 16.594 13.5441 15.9761 13.7109 15.5645C13.9318 15.0195 14.1966 14.6304 14.623 14.2217C15.0496 13.813 15.4558 13.5598 16.0244 13.3477C16.4541 13.1871 17.0997 12.9967 18.2881 12.9443C19.4125 12.8957 19.8484 12.8813 22.1201 12.8789V12.8818ZM23.2139 16.4609C19.7571 16.4609 16.9542 19.1459 16.9541 22.458C16.9541 25.7702 19.757 28.4541 23.2139 28.4541C26.6706 28.454 29.4727 25.7701 29.4727 22.458C29.4726 19.146 26.6705 16.4612 23.2139 16.4609Z" fill="#F05537"/>
<path fill-rule="evenodd" clip-rule="evenodd" d="M23.2134 18.5664C25.4572 18.5664 27.2764 20.3092 27.2764 22.4594C27.2764 24.6093 25.4572 26.3523 23.2134 26.3523C20.9694 26.3523 19.1504 24.6093 19.1504 22.4594C19.1504 20.3092 20.9694 18.5664 23.2134 18.5664V18.5664Z" fill="#F05537"/>
</svg>
