<svg width="47" height="45" viewBox="0 0 47 45" fill="none" xmlns="http://www.w3.org/2000/svg">
<path d="M23.4658 0.563477C36.0878 0.563477 46.3202 10.3673 46.3203 22.4609C46.3203 34.5547 36.0879 44.3594 23.4658 44.3594C10.8438 44.3594 0.611328 34.5547 0.611328 22.4609C0.611483 10.3673 10.8439 0.56348 23.4658 0.563477ZM29.4785 18.3525C26.729 18.3525 25.498 19.7992 24.8105 20.8145V18.7031H19.6299C19.6981 20.1037 19.6299 33.6133 19.6299 33.6133H24.8105V25.2861C24.8105 24.8407 24.8437 24.3962 24.9805 24.0771C25.3548 23.187 26.2071 22.2648 27.6377 22.2646C29.5126 22.2646 30.2627 23.6321 30.2627 25.6357V33.6123H35.4414V25.0635C35.4414 20.4838 32.8867 18.3525 29.4785 18.3525ZM11.5811 33.6084H16.7607V18.6982H11.5811V33.6084ZM14.2061 11.5146C12.4343 11.5146 11.2755 12.628 11.2754 14.0898C11.2754 15.5215 12.3999 16.667 14.1387 16.667H14.1719C15.9777 16.667 17.1025 15.5215 17.1025 14.0898C17.0688 12.628 15.9777 11.5147 14.2061 11.5146Z" fill="#F05537"/>
</svg>
