<svg width="205" height="59" viewBox="0 0 205 59" fill="none" xmlns="http://www.w3.org/2000/svg">
<path d="M41.029 0L0 19.6667L14.9196 26.8122V46.4789L41.029 59L67.1384 46.4789V26.8122L74.5982 23.2394V45.8889H82.058V19.6667L41.029 0ZM66.467 19.6667L41.029 31.86L15.591 19.6667L41.029 7.47333L66.467 19.6667ZM59.6785 42.6111L41.029 51.5267L22.3794 42.6111V30.385L41.029 39.3333L59.6785 30.385V42.6111Z" fill="white"/>
<path d="M89.9429 21.7627C89.9429 20.0603 90.3351 18.5331 91.1196 17.1812C91.9207 15.8293 92.9972 14.7778 94.3491 14.0268C95.7177 13.259 97.2115 12.8751 98.8305 12.8751C100.683 12.8751 102.327 13.3341 103.762 14.2521C105.214 15.1534 106.266 16.4385 106.917 18.1075H103.487C103.036 17.1896 102.411 16.5053 101.609 16.0546C100.808 15.604 99.8819 15.3787 98.8305 15.3787C97.6788 15.3787 96.6524 15.6374 95.7511 16.1548C94.8498 16.6722 94.1405 17.4149 93.6231 18.3829C93.1224 19.3509 92.872 20.4775 92.872 21.7627C92.872 23.0478 93.1224 24.1744 93.6231 25.1425C94.1405 26.1105 94.8498 26.8616 95.7511 27.3956C96.6524 27.913 97.6788 28.1717 98.8305 28.1717C99.8819 28.1717 100.808 27.9464 101.609 27.4958C102.411 27.0452 103.036 26.3609 103.487 25.4429H106.917C106.266 27.1119 105.214 28.3971 103.762 29.2983C102.327 30.1996 100.683 30.6502 98.8305 30.6502C97.1948 30.6502 95.701 30.2747 94.3491 29.5237C92.9972 28.7559 91.9207 27.6961 91.1196 26.3442C90.3351 24.9923 89.9429 23.4651 89.9429 21.7627ZM109.306 23.5402C109.306 22.1549 109.59 20.9282 110.157 19.86C110.742 18.7918 111.526 17.9657 112.511 17.3815C113.512 16.7807 114.614 16.4802 115.815 16.4802C116.9 16.4802 117.843 16.6972 118.644 17.1311C119.462 17.5484 120.113 18.0741 120.597 18.7084V16.7055H123.476V30.5H120.597V28.4471C120.113 29.0981 119.454 29.6405 118.619 30.0744C117.785 30.5084 116.833 30.7253 115.765 30.7253C114.58 30.7253 113.495 30.4249 112.511 29.8241C111.526 29.2065 110.742 28.3553 110.157 27.2705C109.59 26.1689 109.306 24.9255 109.306 23.5402ZM120.597 23.5903C120.597 22.6389 120.397 21.8128 119.996 21.1118C119.612 20.4108 119.103 19.8767 118.469 19.5095C117.835 19.1423 117.151 18.9587 116.416 18.9587C115.682 18.9587 114.998 19.1423 114.363 19.5095C113.729 19.86 113.212 20.3857 112.811 21.0867C112.427 21.771 112.235 22.5889 112.235 23.5402C112.235 24.4915 112.427 25.3261 112.811 26.0437C113.212 26.7614 113.729 27.3122 114.363 27.6961C115.014 28.0633 115.699 28.2468 116.416 28.2468C117.151 28.2468 117.835 28.0633 118.469 27.6961C119.103 27.3289 119.612 26.7948 119.996 26.0938C120.397 25.3761 120.597 24.5416 120.597 23.5903ZM143.923 16.4802C145.008 16.4802 145.976 16.7055 146.828 17.1562C147.695 17.6068 148.371 18.2744 148.855 19.159C149.356 20.0436 149.606 21.1118 149.606 22.3635V30.5H146.777V22.7891C146.777 21.5541 146.469 20.6111 145.851 19.9601C145.234 19.2925 144.391 18.9587 143.323 18.9587C142.254 18.9587 141.403 19.2925 140.769 19.9601C140.151 20.6111 139.843 21.5541 139.843 22.7891V30.5H137.014V22.7891C137.014 21.5541 136.705 20.6111 136.087 19.9601C135.47 19.2925 134.627 18.9587 133.559 18.9587C132.491 18.9587 131.639 19.2925 131.005 19.9601C130.388 20.6111 130.079 21.5541 130.079 22.7891V30.5H127.225V16.7055H130.079V18.2828C130.546 17.7153 131.139 17.273 131.856 16.9559C132.574 16.6388 133.342 16.4802 134.16 16.4802C135.261 16.4802 136.246 16.7139 137.114 17.1812C137.982 17.6485 138.649 18.3245 139.117 19.2091C139.534 18.3746 140.185 17.7153 141.069 17.2313C141.954 16.7306 142.905 16.4802 143.923 16.4802ZM156.092 18.7334C156.576 18.0992 157.235 17.5651 158.07 17.1311C158.905 16.6972 159.848 16.4802 160.899 16.4802C162.101 16.4802 163.194 16.7807 164.179 17.3815C165.18 17.9657 165.964 18.7918 166.532 19.86C167.099 20.9282 167.383 22.1549 167.383 23.5402C167.383 24.9255 167.099 26.1689 166.532 27.2705C165.964 28.3553 165.18 29.2065 164.179 29.8241C163.194 30.4249 162.101 30.7253 160.899 30.7253C159.848 30.7253 158.913 30.5167 158.095 30.0995C157.277 29.6655 156.61 29.1314 156.092 28.4972V37.0593H153.238V16.7055H156.092V18.7334ZM164.479 23.5402C164.479 22.5889 164.279 21.771 163.878 21.0867C163.494 20.3857 162.977 19.86 162.326 19.5095C161.692 19.1423 161.007 18.9587 160.273 18.9587C159.555 18.9587 158.871 19.1423 158.22 19.5095C157.586 19.8767 157.069 20.4108 156.668 21.1118C156.284 21.8128 156.092 22.6389 156.092 23.5903C156.092 24.5416 156.284 25.3761 156.668 26.0938C157.069 26.7948 157.586 27.3289 158.22 27.6961C158.871 28.0633 159.555 28.2468 160.273 28.2468C161.007 28.2468 161.692 28.0633 162.326 27.6961C162.977 27.3122 163.494 26.7614 163.878 26.0437C164.279 25.3261 164.479 24.4915 164.479 23.5402ZM182.698 16.7055V30.5H179.844V28.8727C179.393 29.4402 178.801 29.8908 178.067 30.2246C177.349 30.5418 176.581 30.7003 175.763 30.7003C174.678 30.7003 173.702 30.475 172.834 30.0244C171.983 29.5737 171.307 28.9061 170.806 28.0215C170.322 27.1369 170.08 26.0688 170.08 24.817V16.7055H172.909V24.3914C172.909 25.6265 173.218 26.5778 173.836 27.2454C174.453 27.8964 175.296 28.2218 176.364 28.2218C177.432 28.2218 178.275 27.8964 178.893 27.2454C179.527 26.5778 179.844 25.6265 179.844 24.3914V16.7055H182.698ZM191.471 30.7253C190.386 30.7253 189.41 30.5334 188.542 30.1495C187.691 29.749 187.015 29.2149 186.514 28.5473C186.013 27.863 185.746 27.1036 185.713 26.2691H188.667C188.717 26.8532 188.992 27.3456 189.493 27.7461C190.01 28.13 190.653 28.322 191.421 28.322C192.222 28.322 192.839 28.1717 193.273 27.8713C193.724 27.5542 193.949 27.1536 193.949 26.6696C193.949 26.1522 193.699 25.7683 193.198 25.518C192.714 25.2676 191.938 24.9923 190.87 24.6918C189.835 24.4081 188.992 24.1327 188.341 23.8657C187.691 23.5986 187.123 23.1897 186.639 22.6389C186.172 22.0881 185.938 21.3621 185.938 20.4609C185.938 19.7265 186.155 19.0589 186.589 18.458C187.023 17.8405 187.64 17.3565 188.442 17.006C189.259 16.6555 190.194 16.4802 191.246 16.4802C192.814 16.4802 194.075 16.8808 195.026 17.6819C195.994 18.4664 196.511 19.5429 196.578 20.9115H193.724C193.674 20.2939 193.424 19.8016 192.973 19.4344C192.522 19.0672 191.913 18.8836 191.145 18.8836C190.394 18.8836 189.819 19.0255 189.418 19.3092C189.017 19.593 188.817 19.9685 188.817 20.4358C188.817 20.803 188.951 21.1118 189.218 21.3621C189.485 21.6125 189.81 21.8128 190.194 21.963C190.578 22.0965 191.145 22.2717 191.896 22.4887C192.898 22.7558 193.716 23.0311 194.35 23.3149C195.001 23.5819 195.56 23.9825 196.027 24.5166C196.495 25.0507 196.737 25.76 196.753 26.6446C196.753 27.429 196.536 28.13 196.102 28.7476C195.668 29.3651 195.051 29.8491 194.25 30.1996C193.465 30.5501 192.539 30.7253 191.471 30.7253Z" fill="white"/>
<path d="M89.9429 46.0128C89.9429 44.3103 90.3351 42.7832 91.1196 41.4313C91.9207 40.0794 92.9972 39.0279 94.3491 38.2768C95.7177 37.5091 97.2115 37.1252 98.8305 37.1252C100.683 37.1252 102.327 37.5842 103.762 38.5021C105.214 39.4034 106.266 40.6886 106.917 42.3576H103.487C103.036 41.4396 102.411 40.7553 101.609 40.3047C100.808 39.8541 99.8819 39.6287 98.8305 39.6287C97.6788 39.6287 96.6524 39.8874 95.7511 40.4048C94.8498 40.9222 94.1405 41.6649 93.6231 42.633C93.1224 43.601 92.872 44.7276 92.872 46.0128C92.872 47.2979 93.1224 48.4245 93.6231 49.3925C94.1405 50.3606 94.8498 51.1116 95.7511 51.6457C96.6524 52.1631 97.6788 52.4218 98.8305 52.4218C99.8819 52.4218 100.808 52.1965 101.609 51.7458C102.411 51.2952 103.036 50.6109 103.487 49.6929H106.917C106.266 51.362 105.214 52.6471 103.762 53.5484C102.327 54.4497 100.683 54.9003 98.8305 54.9003C97.1948 54.9003 95.701 54.5248 94.3491 53.7737C92.9972 53.006 91.9207 51.9461 91.1196 50.5942C90.3351 49.2423 89.9429 47.7152 89.9429 46.0128ZM116.241 54.9754C114.939 54.9754 113.762 54.6833 112.711 54.0992C111.66 53.4983 110.833 52.6638 110.233 51.5956C109.632 50.5108 109.331 49.259 109.331 47.8403C109.331 46.4384 109.64 45.1949 110.258 44.1101C110.875 43.0252 111.718 42.1907 112.786 41.6065C113.854 41.0224 115.048 40.7303 116.366 40.7303C117.685 40.7303 118.878 41.0224 119.946 41.6065C121.014 42.1907 121.857 43.0252 122.475 44.1101C123.092 45.1949 123.401 46.4384 123.401 47.8403C123.401 49.2423 123.084 50.4857 122.45 51.5706C121.816 52.6555 120.948 53.4983 119.846 54.0992C118.761 54.6833 117.56 54.9754 116.241 54.9754ZM116.241 52.4969C116.975 52.4969 117.66 52.3217 118.294 51.9712C118.945 51.6207 119.471 51.0949 119.871 50.3939C120.272 49.6929 120.472 48.8417 120.472 47.8403C120.472 46.8389 120.28 45.9961 119.896 45.3118C119.512 44.6108 119.003 44.085 118.369 43.7345C117.735 43.384 117.05 43.2088 116.316 43.2088C115.582 43.2088 114.897 43.384 114.263 43.7345C113.646 44.085 113.153 44.6108 112.786 45.3118C112.419 45.9961 112.235 46.8389 112.235 47.8403C112.235 49.3258 112.611 50.4774 113.362 51.2952C114.13 52.0963 115.089 52.4969 116.241 52.4969ZM133.182 40.7303C134.267 40.7303 135.235 40.9556 136.086 41.4062C136.954 41.8569 137.63 42.5245 138.114 43.4091C138.598 44.2937 138.84 45.3618 138.84 46.6136V54.7501H136.011V47.0392C136.011 45.8041 135.703 44.8611 135.085 44.2102C134.467 43.5426 133.625 43.2088 132.556 43.2088C131.488 43.2088 130.637 43.5426 130.003 44.2102C129.385 44.8611 129.077 45.8041 129.077 47.0392V54.7501H126.222V40.9556H129.077V42.5328C129.544 41.9654 130.136 41.5231 130.854 41.206C131.588 40.8888 132.364 40.7303 133.182 40.7303ZM149.441 40.7303C150.525 40.7303 151.494 40.9556 152.345 41.4062C153.213 41.8569 153.889 42.5245 154.373 43.4091C154.857 44.2937 155.099 45.3618 155.099 46.6136V54.7501H152.27V47.0392C152.27 45.8041 151.961 44.8611 151.343 44.2102C150.726 43.5426 149.883 43.2088 148.815 43.2088C147.747 43.2088 146.895 43.5426 146.261 44.2102C145.644 44.8611 145.335 45.8041 145.335 47.0392V54.7501H142.481V40.9556H145.335V42.5328C145.802 41.9654 146.395 41.5231 147.112 41.206C147.847 40.8888 148.623 40.7303 149.441 40.7303ZM171.382 47.5149C171.382 48.0323 171.349 48.4996 171.282 48.9169H160.742C160.825 50.0184 161.234 50.903 161.969 51.5706C162.703 52.2382 163.604 52.572 164.672 52.572C166.208 52.572 167.293 51.9294 167.927 50.6443H171.006C170.589 51.9128 169.83 52.9559 168.728 53.7737C167.643 54.5748 166.291 54.9754 164.672 54.9754C163.354 54.9754 162.169 54.6833 161.117 54.0992C160.083 53.4983 159.265 52.6638 158.664 51.5956C158.08 50.5108 157.788 49.259 157.788 47.8403C157.788 46.4217 158.071 45.1782 158.639 44.1101C159.223 43.0252 160.033 42.1907 161.067 41.6065C162.119 41.0224 163.321 40.7303 164.672 40.7303C165.974 40.7303 167.134 41.014 168.152 41.5815C169.171 42.149 169.963 42.9501 170.531 43.9849C171.098 45.003 171.382 46.1797 171.382 47.5149ZM168.403 46.6136C168.386 45.5621 168.011 44.7193 167.276 44.085C166.542 43.4508 165.632 43.1337 164.547 43.1337C163.563 43.1337 162.72 43.4508 162.019 44.085C161.318 44.7026 160.9 45.5454 160.767 46.6136H168.403ZM173.239 47.8403C173.239 46.4217 173.523 45.1782 174.09 44.1101C174.675 43.0252 175.476 42.1907 176.494 41.6065C177.512 41.0224 178.68 40.7303 179.999 40.7303C181.668 40.7303 183.045 41.1309 184.13 41.932C185.231 42.7164 185.974 43.843 186.358 45.3118H183.278C183.028 44.6275 182.628 44.0934 182.077 43.7095C181.526 43.3256 180.833 43.1337 179.999 43.1337C178.83 43.1337 177.896 43.5509 177.195 44.3855C176.511 45.2033 176.168 46.3549 176.168 47.8403C176.168 49.3258 176.511 50.4857 177.195 51.3202C177.896 52.1548 178.83 52.572 179.999 52.572C181.651 52.572 182.744 51.846 183.278 50.3939H186.358C185.957 51.7959 185.206 52.9142 184.105 53.7487C183.003 54.5665 181.634 54.9754 179.999 54.9754C178.68 54.9754 177.512 54.6833 176.494 54.0992C175.476 53.4983 174.675 52.6638 174.09 51.5956C173.523 50.5108 173.239 49.259 173.239 47.8403ZM192.532 43.2839V50.9197C192.532 51.4371 192.649 51.8126 192.882 52.0463C193.133 52.2632 193.55 52.3717 194.134 52.3717H195.886V54.7501H193.633C192.348 54.7501 191.363 54.4497 190.679 53.8488C189.995 53.248 189.653 52.2716 189.653 50.9197V43.2839H188.025V40.9556H189.653V37.5258H192.532V40.9556H195.886V43.2839H192.532Z" fill="white"/>
</svg>
