<svg width="177" height="60" viewBox="0 0 177 60" fill="none" xmlns="http://www.w3.org/2000/svg">
<path d="M35.425 0L0 19.6945L12.8818 26.8501V46.5446L35.425 59.0834L57.9682 46.5446V26.8501L64.4092 23.2723V45.9538H70.8501V19.6945L35.425 0ZM57.3886 19.6945L35.425 31.9051L13.4615 19.6945L35.425 7.4839L57.3886 19.6945ZM51.5273 42.6714L35.425 51.5995L19.3227 42.6714V30.428L35.425 39.389L51.5273 30.428V42.6714Z" fill="white"/>
<path d="M93.7148 13.9859H91.51C91.3796 13.3517 91.1514 12.7945 90.8254 12.3145C90.5053 11.8344 90.1142 11.4314 89.6519 11.1054C89.1955 10.7735 88.6887 10.5245 88.1316 10.3586C87.5745 10.1926 86.9936 10.1096 86.3891 10.1096C85.2867 10.1096 84.288 10.3882 83.393 10.9453C82.504 11.5025 81.7957 12.3234 81.2682 13.408C80.7466 14.4926 80.4859 15.8232 80.4859 17.3998C80.4859 18.9763 80.7466 20.3069 81.2682 21.3916C81.7957 22.4762 82.504 23.2971 83.393 23.8542C84.288 24.4113 85.2867 24.6899 86.3891 24.6899C86.9936 24.6899 87.5745 24.6069 88.1316 24.441C88.6887 24.275 89.1955 24.029 89.6519 23.7031C90.1142 23.3712 90.5053 22.9652 90.8254 22.4851C91.1514 21.9991 91.3796 21.4419 91.51 20.8137H93.7148C93.5488 21.7442 93.2465 22.5769 92.808 23.3119C92.3694 24.0468 91.8241 24.6721 91.1721 25.1878C90.5202 25.6975 89.7882 26.0857 88.9762 26.3524C88.1701 26.6191 87.3078 26.7525 86.3891 26.7525C84.8362 26.7525 83.4553 26.3731 82.2462 25.6145C81.0371 24.8559 80.0858 23.7772 79.3923 22.3784C78.6989 20.9796 78.3522 19.3201 78.3522 17.3998C78.3522 15.4794 78.6989 13.8199 79.3923 12.4211C80.0858 11.0224 81.0371 9.94369 82.2462 9.18504C83.4553 8.4264 84.8362 8.04707 86.3891 8.04707C87.3078 8.04707 88.1701 8.18043 88.9762 8.44714C89.7882 8.71385 90.5202 9.10503 91.1721 9.62067C91.8241 10.1304 92.3694 10.7527 92.808 11.4877C93.2465 12.2167 93.5488 13.0494 93.7148 13.9859ZM101.012 26.8236C100.146 26.8236 99.3609 26.6606 98.6556 26.3346C97.9503 26.0027 97.3902 25.5256 96.9753 24.9033C96.5604 24.275 96.353 23.5164 96.353 22.6273C96.353 21.845 96.5071 21.2108 96.8153 20.7248C97.1235 20.2328 97.5354 19.8476 98.0511 19.569C98.5667 19.2905 99.1357 19.083 99.758 18.9467C100.386 18.8045 101.017 18.6918 101.652 18.6089C102.481 18.5022 103.154 18.4222 103.67 18.3688C104.191 18.3096 104.571 18.2118 104.808 18.0754C105.051 17.9391 105.172 17.702 105.172 17.3642V17.2931C105.172 16.4159 104.932 15.7343 104.452 15.2483C103.978 14.7623 103.258 14.5193 102.292 14.5193C101.29 14.5193 100.505 14.7386 99.9358 15.1772C99.3668 15.6158 98.9668 16.084 98.7356 16.5819L96.7442 15.8706C97.0998 15.0409 97.5739 14.3948 98.1666 13.9325C98.7653 13.4643 99.4172 13.1383 100.123 12.9546C100.834 12.7649 101.533 12.6701 102.221 12.6701C102.659 12.6701 103.163 12.7234 103.732 12.8301C104.307 12.9309 104.861 13.1413 105.395 13.4613C105.934 13.7814 106.381 14.2644 106.737 14.9105C107.093 15.5565 107.27 16.4218 107.27 17.5065V26.5035H105.172V24.6543H105.066C104.923 24.9507 104.686 25.2678 104.354 25.6056C104.022 25.9434 103.581 26.2309 103.03 26.468C102.478 26.7051 101.806 26.8236 101.012 26.8236ZM101.332 24.9388C102.161 24.9388 102.861 24.7758 103.43 24.4499C104.005 24.1239 104.437 23.7031 104.728 23.1874C105.024 22.6718 105.172 22.1295 105.172 21.5605V19.6402C105.083 19.7468 104.888 19.8446 104.586 19.9335C104.289 20.0165 103.945 20.0906 103.554 20.1558C103.169 20.2151 102.793 20.2684 102.425 20.3158C102.064 20.3573 101.77 20.3929 101.545 20.4225C101 20.4936 100.49 20.6092 100.016 20.7692C99.5476 20.9233 99.1683 21.1574 98.8779 21.4716C98.5934 21.7798 98.4511 22.2006 98.4511 22.734C98.4511 23.463 98.7208 24.0142 99.2602 24.3876C99.8054 24.7551 100.496 24.9388 101.332 24.9388ZM111.1 26.5035V12.8479H113.127V14.9816H113.305C113.589 14.2526 114.049 13.6865 114.683 13.2835C115.317 12.8746 116.079 12.6701 116.968 12.6701C117.869 12.6701 118.618 12.8746 119.217 13.2835C119.821 13.6865 120.293 14.2526 120.63 14.9816H120.773C121.122 14.2763 121.647 13.7162 122.346 13.3013C123.046 12.8805 123.884 12.6701 124.862 12.6701C126.083 12.6701 127.082 13.0524 127.858 13.8169C128.635 14.5756 129.023 15.758 129.023 17.3642V26.5035H126.925V17.3642C126.925 16.3566 126.649 15.6365 126.098 15.2038C125.547 14.7712 124.898 14.5548 124.151 14.5548C123.191 14.5548 122.447 14.8453 121.92 15.4261C121.392 16.001 121.128 16.73 121.128 17.6131V26.5035H118.995V17.1508C118.995 16.3744 118.743 15.7491 118.239 15.275C117.735 14.7949 117.086 14.5548 116.292 14.5548C115.747 14.5548 115.237 14.7001 114.763 14.9905C114.295 15.2809 113.915 15.6839 113.625 16.1996C113.34 16.7093 113.198 17.299 113.198 17.9688V26.5035H111.1ZM132.859 31.6244V12.8479H134.886V15.0171H135.135C135.289 14.7801 135.503 14.4778 135.775 14.1103C136.054 13.7369 136.451 13.405 136.967 13.1146C137.488 12.8183 138.193 12.6701 139.082 12.6701C140.232 12.6701 141.246 12.9575 142.123 13.5324C143 14.1074 143.685 14.9223 144.177 15.9773C144.669 17.0323 144.915 18.277 144.915 19.7113C144.915 21.1574 144.669 22.411 144.177 23.4719C143.685 24.5269 143.003 25.3448 142.132 25.9257C141.261 26.5006 140.256 26.788 139.118 26.788C138.241 26.788 137.539 26.6428 137.011 26.3524C136.484 26.0561 136.078 25.7212 135.793 25.3478C135.509 24.9685 135.289 24.6543 135.135 24.4054H134.957V31.6244H132.859ZM134.922 19.6757C134.922 20.707 135.073 21.6168 135.375 22.4051C135.677 23.1874 136.119 23.8009 136.7 24.2454C137.281 24.684 137.992 24.9033 138.834 24.9033C139.711 24.9033 140.443 24.6721 141.029 24.2098C141.622 23.7416 142.067 23.1133 142.363 22.3251C142.665 21.5308 142.816 20.6477 142.816 19.6757C142.816 18.7156 142.668 17.8502 142.372 17.0797C142.082 16.3033 141.64 15.6899 141.047 15.2394C140.46 14.783 139.723 14.5548 138.834 14.5548C137.98 14.5548 137.263 14.7712 136.682 15.2038C136.101 15.6306 135.663 16.2292 135.366 16.9997C135.07 17.7643 134.922 18.6563 134.922 19.6757ZM156.721 20.9204V12.8479H158.819V26.5035H156.721V24.192H156.579C156.259 24.8855 155.761 25.4752 155.085 25.9612C154.41 26.4413 153.556 26.6813 152.525 26.6813C151.671 26.6813 150.913 26.4946 150.249 26.1213C149.585 25.7419 149.063 25.1729 148.684 24.4143C148.305 23.6497 148.115 22.6866 148.115 21.5249V12.8479H150.213V21.3827C150.213 22.3784 150.492 23.1726 151.049 23.7653C151.612 24.358 152.329 24.6543 153.2 24.6543C153.722 24.6543 154.252 24.521 154.792 24.2543C155.337 23.9876 155.793 23.5786 156.161 23.0274C156.534 22.4762 156.721 21.7738 156.721 20.9204ZM172.335 15.9062L170.45 16.4396C170.331 16.1255 170.157 15.8202 169.925 15.5239C169.7 15.2216 169.392 14.9727 169.001 14.7771C168.61 14.5815 168.109 14.4837 167.498 14.4837C166.663 14.4837 165.966 14.6763 165.409 15.0616C164.858 15.4409 164.582 15.924 164.582 16.5107C164.582 17.0323 164.772 17.4442 165.151 17.7465C165.531 18.0488 166.123 18.3007 166.929 18.5022L168.956 19C170.177 19.2964 171.087 19.7498 171.686 20.3603C172.284 20.9648 172.584 21.7442 172.584 22.6984C172.584 23.4808 172.358 24.1802 171.908 24.7966C171.464 25.413 170.841 25.899 170.041 26.2546C169.241 26.6102 168.31 26.788 167.249 26.788C165.857 26.788 164.704 26.4858 163.791 25.8812C162.878 25.2767 162.3 24.3936 162.057 23.2319L164.049 22.734C164.239 23.469 164.597 24.0202 165.125 24.3876C165.658 24.7551 166.355 24.9388 167.214 24.9388C168.192 24.9388 168.968 24.7314 169.543 24.3165C170.124 23.8957 170.414 23.3919 170.414 22.8051C170.414 22.331 170.249 21.9339 169.917 21.6138C169.585 21.2878 169.075 21.0448 168.387 20.8848L166.112 20.3514C164.861 20.055 163.942 19.5957 163.355 18.9734C162.775 18.3451 162.484 17.5598 162.484 16.6174C162.484 15.8469 162.701 15.1653 163.133 14.5726C163.572 13.9799 164.167 13.5147 164.92 13.1768C165.679 12.839 166.538 12.6701 167.498 12.6701C168.85 12.6701 169.911 12.9664 170.681 13.5591C171.458 14.1518 172.009 14.9342 172.335 15.9062Z" fill="white"/>
<path d="M93.7148 38.2702H91.51C91.3796 37.636 91.1514 37.0788 90.8254 36.5988C90.5053 36.1187 90.1142 35.7157 89.6519 35.3897C89.1955 35.0578 88.6887 34.8088 88.1316 34.6429C87.5745 34.4769 86.9936 34.3939 86.3891 34.3939C85.2867 34.3939 84.288 34.6725 83.393 35.2296C82.504 35.7868 81.7957 36.6077 81.2682 37.6923C80.7466 38.7769 80.4859 40.1075 80.4859 41.6841C80.4859 43.2606 80.7466 44.5912 81.2682 45.6759C81.7957 46.7605 82.504 47.5814 83.393 48.1385C84.288 48.6956 85.2867 48.9742 86.3891 48.9742C86.9936 48.9742 87.5745 48.8912 88.1316 48.7253C88.6887 48.5593 89.1955 48.3133 89.6519 47.9874C90.1142 47.6555 90.5053 47.2495 90.8254 46.7694C91.1514 46.2834 91.3796 45.7262 91.51 45.098H93.7148C93.5488 46.0285 93.2465 46.8612 92.808 47.5962C92.3694 48.3311 91.8241 48.9564 91.1721 49.4721C90.5202 49.9818 89.7882 50.37 88.9762 50.6367C88.1701 50.9034 87.3078 51.0368 86.3891 51.0368C84.8362 51.0368 83.4553 50.6574 82.2462 49.8988C81.0371 49.1402 80.0858 48.0615 79.3923 46.6627C78.6989 45.2639 78.3522 43.6044 78.3522 41.6841C78.3522 39.7637 78.6989 38.1042 79.3923 36.7055C80.0858 35.3067 81.0371 34.228 82.2462 33.4693C83.4553 32.7107 84.8362 32.3314 86.3891 32.3314C87.3078 32.3314 88.1701 32.4647 88.9762 32.7314C89.7882 32.9982 90.5202 33.3893 91.1721 33.905C91.8241 34.4147 92.3694 35.037 92.808 35.772C93.2465 36.501 93.5488 37.3337 93.7148 38.2702ZM102.541 51.0723C101.308 51.0723 100.226 50.779 99.2957 50.1922C98.3711 49.6054 97.648 48.7845 97.1265 47.7295C96.6108 46.6746 96.353 45.4417 96.353 44.0311C96.353 42.6087 96.6108 41.367 97.1265 40.3061C97.648 39.2451 98.3711 38.4213 99.2957 37.8345C100.226 37.2478 101.308 36.9544 102.541 36.9544C103.774 36.9544 104.852 37.2478 105.777 37.8345C106.707 38.4213 107.43 39.2451 107.946 40.3061C108.468 41.367 108.728 42.6087 108.728 44.0311C108.728 45.4417 108.468 46.6746 107.946 47.7295C107.43 48.7845 106.707 49.6054 105.777 50.1922C104.852 50.779 103.774 51.0723 102.541 51.0723ZM102.541 49.1876C103.477 49.1876 104.248 48.9475 104.852 48.4674C105.457 47.9874 105.904 47.3561 106.195 46.5738C106.485 45.7914 106.63 44.9439 106.63 44.0311C106.63 43.1184 106.485 42.2679 106.195 41.4796C105.904 40.6913 105.457 40.0542 104.852 39.5682C104.248 39.0822 103.477 38.8391 102.541 38.8391C101.604 38.8391 100.834 39.0822 100.229 39.5682C99.6247 40.0542 99.1772 40.6913 98.8868 41.4796C98.5963 42.2679 98.4511 43.1184 98.4511 44.0311C98.4511 44.9439 98.5963 45.7914 98.8868 46.5738C99.1772 47.3561 99.6247 47.9874 100.229 48.4674C100.834 48.9475 101.604 49.1876 102.541 49.1876ZM114.029 42.5731V50.7878H111.931V37.1322H113.958V39.2659H114.136C114.456 38.5724 114.942 38.0153 115.594 37.5945C116.246 37.1678 117.088 36.9544 118.119 36.9544C119.044 36.9544 119.853 37.144 120.546 37.5234C121.239 37.8968 121.779 38.4658 122.164 39.2303C122.549 39.989 122.742 40.9491 122.742 42.1108V50.7878H120.644V42.2531C120.644 41.1803 120.365 40.3446 119.808 39.746C119.251 39.1414 118.486 38.8391 117.514 38.8391C116.845 38.8391 116.246 38.9844 115.719 39.2748C115.197 39.5652 114.785 39.989 114.483 40.5461C114.18 41.1032 114.029 41.7789 114.029 42.5731ZM128.674 42.5731V50.7878H126.576V37.1322H128.603V39.2659H128.781C129.101 38.5724 129.587 38.0153 130.239 37.5945C130.891 37.1678 131.732 36.9544 132.764 36.9544C133.688 36.9544 134.497 37.144 135.191 37.5234C135.884 37.8968 136.424 38.4658 136.809 39.2303C137.194 39.989 137.387 40.9491 137.387 42.1108V50.7878H135.288V42.2531C135.288 41.1803 135.01 40.3446 134.453 39.746C133.896 39.1414 133.131 38.8391 132.159 38.8391C131.489 38.8391 130.891 38.9844 130.363 39.2748C129.842 39.5652 129.43 39.989 129.127 40.5461C128.825 41.1032 128.674 41.7789 128.674 42.5731ZM146.946 51.0723C145.63 51.0723 144.495 50.7819 143.541 50.2011C142.593 49.6143 141.861 48.7964 141.345 47.7473C140.835 46.6923 140.581 45.4655 140.581 44.0667C140.581 42.6679 140.835 41.4351 141.345 40.3683C141.861 39.2955 142.578 38.4598 143.497 37.8612C144.421 37.2567 145.5 36.9544 146.733 36.9544C147.444 36.9544 148.146 37.0729 148.84 37.31C149.533 37.5471 150.164 37.9323 150.733 38.4658C151.302 38.9932 151.756 39.6926 152.094 40.5639C152.431 41.4351 152.6 42.5079 152.6 43.7822V44.6712H142.074V42.8576H150.467C150.467 42.0871 150.313 41.3996 150.004 40.795C149.702 40.1905 149.269 39.7134 148.706 39.3637C148.149 39.014 147.491 38.8391 146.733 38.8391C145.897 38.8391 145.174 39.0466 144.563 39.4615C143.959 39.8704 143.494 40.4039 143.168 41.0617C142.842 41.7196 142.679 42.4249 142.679 43.1777V44.3868C142.679 45.418 142.856 46.2923 143.212 47.0094C143.574 47.7207 144.074 48.263 144.715 48.6364C145.355 49.0038 146.098 49.1876 146.946 49.1876C147.497 49.1876 147.995 49.1105 148.44 48.9564C148.89 48.7964 149.278 48.5593 149.604 48.2452C149.93 47.9251 150.182 47.528 150.36 47.0539L152.387 47.6229C152.174 48.3104 151.815 48.9149 151.311 49.4365C150.807 49.9521 150.185 50.3552 149.444 50.6456C148.703 50.9301 147.871 51.0723 146.946 51.0723ZM161.34 51.0723C160.059 51.0723 158.957 50.7701 158.032 50.1655C157.108 49.561 156.397 48.7282 155.899 47.6673C155.401 46.6064 155.152 45.3943 155.152 44.0311C155.152 42.6442 155.407 41.4203 155.916 40.3594C156.432 39.2926 157.149 38.4598 158.068 37.8612C158.993 37.2567 160.071 36.9544 161.304 36.9544C162.264 36.9544 163.13 37.1322 163.9 37.4878C164.671 37.8434 165.302 38.3413 165.794 38.9814C166.286 39.6215 166.591 40.3683 166.709 41.2218H164.611C164.451 40.5994 164.096 40.0482 163.544 39.5682C162.999 39.0822 162.264 38.8391 161.34 38.8391C160.522 38.8391 159.805 39.0525 159.188 39.4793C158.578 39.9001 158.101 40.4957 157.757 41.2662C157.419 42.0308 157.25 42.9287 157.25 43.96C157.25 45.015 157.416 45.9337 157.748 46.716C158.086 47.4984 158.56 48.1059 159.17 48.5386C159.787 48.9712 160.51 49.1876 161.34 49.1876C161.885 49.1876 162.38 49.0927 162.824 48.9031C163.269 48.7134 163.645 48.4408 163.953 48.0852C164.262 47.7295 164.481 47.3028 164.611 46.8049H166.709C166.591 47.611 166.297 48.3371 165.829 48.9831C165.367 49.6232 164.753 50.1329 163.989 50.5122C163.23 50.8856 162.347 51.0723 161.34 51.0723ZM175.715 37.1322V38.9103H168.639V37.1322H175.715ZM170.701 33.8605H172.799V46.8761C172.799 47.4688 172.885 47.9133 173.057 48.2096C173.235 48.5 173.46 48.6956 173.733 48.7964C174.011 48.8912 174.305 48.9386 174.613 48.9386C174.844 48.9386 175.034 48.9268 175.182 48.9031C175.33 48.8734 175.449 48.8497 175.538 48.832L175.964 50.7167C175.822 50.7701 175.623 50.8234 175.369 50.8767C175.114 50.936 174.791 50.9656 174.4 50.9656C173.807 50.9656 173.226 50.8382 172.657 50.5834C172.094 50.3285 171.626 49.9403 171.252 49.4187C170.885 48.8972 170.701 48.2393 170.701 47.4451V33.8605Z" fill="white"/>
</svg>
