<svg width="46" height="45" viewBox="0 0 46 45" fill="none" xmlns="http://www.w3.org/2000/svg">
<path d="M22.8496 0.563477C35.4715 0.563494 45.7039 10.3673 45.7041 22.4609C45.7041 34.5547 35.4716 44.3594 22.8496 44.3594C10.2276 44.3594 -0.00488281 34.5547 -0.00488281 22.4609C-0.00472823 10.3673 10.2277 0.563477 22.8496 0.563477ZM29.3037 14.4248C28.4885 14.2083 27.2412 14.239 26.5059 14.4863C24.5076 15.1822 23.2448 16.9766 23.3887 18.9404L23.4365 19.6982L22.6367 19.6055C19.7275 19.2498 17.1863 18.0431 15.0283 16.0176L13.9727 15.0127L13.7012 15.7549C13.1257 17.4095 13.4934 19.1568 14.6924 20.332C15.3316 20.9813 15.1877 21.074 14.085 20.6875C13.7013 20.5638 13.365 20.4712 13.333 20.5176C13.2217 20.6271 13.6056 22.0334 13.9092 22.5898C14.3249 23.3629 15.1716 24.1209 16.0986 24.5693L16.8818 24.9248L15.9551 24.9404C15.0599 24.9404 15.0281 24.9555 15.124 25.2803C15.4438 26.2854 16.7065 27.3525 18.1133 27.8164L19.1045 28.1406L18.2412 28.6357C16.9624 29.347 15.4596 29.7493 13.957 29.7803C13.2377 29.7957 12.6455 29.8579 12.6455 29.9043C12.6488 30.06 14.5974 30.9247 15.7314 31.2646C19.1364 32.2697 23.1805 31.8365 26.2178 30.1201C28.3759 28.8985 30.5339 26.4706 31.541 24.1201C32.0845 22.8675 32.6289 20.5793 32.6289 19.4814C32.6289 18.7703 32.6764 18.6773 33.5713 17.8271C34.0988 17.3323 34.5945 16.7904 34.6904 16.6357C34.8501 16.3422 34.8344 16.3427 34.0195 16.6055C32.6609 17.0693 32.4685 17.0072 33.1396 16.3115C33.635 15.8169 34.227 14.9205 34.2275 14.6572C34.2275 14.6108 33.9875 14.688 33.7158 14.8271C33.4281 14.9818 32.7882 15.2134 32.3086 15.3525L31.4453 15.6152L30.6621 15.1055C30.2306 14.8272 29.6235 14.5177 29.3037 14.4248Z" fill="#F05537"/>
</svg>
